<?xml version="1.0" encoding="UTF-8"?>
<svg xmlns="http://www.w3.org/2000/svg" xmlns:xlink="http://www.w3.org/1999/xlink" viewBox="0 0 32 32" width="32px" height="32px">
<g id="surface23641264">
<path style=" stroke:none;fill-rule:nonzero;fill:rgb(0%,0%,0%);fill-opacity:1;" d="M 9.699219 6.199219 C 7.773438 6.199219 6.199219 7.773438 6.199219 9.699219 L 6.199219 20.898438 C 6.199219 22.824219 7.773438 24.398438 9.699219 24.398438 L 20.898438 24.398438 C 22.824219 24.398438 24.398438 22.824219 24.398438 20.898438 L 24.398438 9.699219 C 24.398438 7.773438 22.824219 6.199219 20.898438 6.199219 Z M 9.699219 7.601562 L 20.898438 7.601562 C 22.070312 7.601562 23 8.53125 23 9.699219 L 23 20.898438 C 23 22.070312 22.070312 23 20.898438 23 L 18.664062 23 L 18.664062 17.355469 L 20.621094 17.355469 L 20.914062 15.101562 L 18.664062 15.101562 L 18.664062 13.664062 C 18.664062 13.011719 18.847656 12.570312 19.789062 12.570312 L 20.992188 12.570312 L 20.992188 10.554688 C 20.785156 10.523438 20.070312 10.464844 19.238281 10.464844 C 17.507812 10.464844 16.324219 11.515625 16.324219 13.441406 L 16.324219 15.101562 L 14.601562 15.09375 L 14.601562 17.347656 L 16.324219 17.355469 L 16.324219 23 L 9.699219 23 C 8.53125 23 7.601562 22.070312 7.601562 20.898438 L 7.601562 9.699219 C 7.601562 8.53125 8.53125 7.601562 9.699219 7.601562 Z M 9.699219 7.601562 "/>
</g>
</svg>
